<svg width="720" height="900" viewBox="0 0 720 900" fill="none" xmlns="http://www.w3.org/2000/svg">
  <defs>
    <linearGradient id="screenGradient" x1="0" y1="0" x2="1" y2="1">
      <stop offset="0%" stop-color="#11141A" />
      <stop offset="100%" stop-color="#0B0D12" />
    </linearGradient>
    <linearGradient id="cardGlow" x1="0" y1="0" x2="1" y2="1">
      <stop offset="0%" stop-color="#1A1F28" />
      <stop offset="100%" stop-color="#151922" />
    </linearGradient>
  </defs>

  <rect x="120" y="50" width="480" height="800" rx="54" fill="#0D1016" stroke="#2A2F3A" stroke-width="2" />
  <rect x="150" y="90" width="420" height="720" rx="40" fill="url(#screenGradient)" stroke="#1F2430" stroke-width="1.5" />
  <rect x="290" y="105" width="140" height="12" rx="6" fill="#1C202A" />
  <circle cx="452" cy="111" r="4" fill="#2C323D" />

  <rect x="185" y="150" width="350" height="84" rx="20" fill="url(#cardGlow)" stroke="#252A35" stroke-width="1.2" />
  <rect x="210" y="175" width="130" height="10" rx="5" fill="#2D333F" />
  <rect x="210" y="195" width="220" height="12" rx="6" fill="#ECEFF5" opacity="0.9" />
  <rect x="210" y="215" width="110" height="8" rx="4" fill="#303744" />

  <rect x="185" y="260" width="350" height="66" rx="18" fill="#171B22" stroke="#242934" stroke-width="1.2" />
  <circle cx="215" cy="293" r="16" fill="#232836" />
  <rect x="245" y="283" width="140" height="10" rx="5" fill="#ECEFF5" opacity="0.85" />
  <rect x="245" y="300" width="90" height="8" rx="4" fill="#2F3642" />
  <circle cx="500" cy="293" r="8" fill="#FF003D" />

  <rect x="185" y="340" width="350" height="66" rx="18" fill="#171B22" stroke="#242934" stroke-width="1.2" />
  <circle cx="215" cy="373" r="16" fill="#232836" />
  <rect x="245" y="363" width="160" height="10" rx="5" fill="#ECEFF5" opacity="0.85" />
  <rect x="245" y="380" width="110" height="8" rx="4" fill="#2F3642" />
  <circle cx="500" cy="373" r="8" fill="#FF003D" />

  <rect x="185" y="420" width="350" height="66" rx="18" fill="#171B22" stroke="#242934" stroke-width="1.2" />
  <circle cx="215" cy="453" r="16" fill="#232836" />
  <rect x="245" y="443" width="150" height="10" rx="5" fill="#ECEFF5" opacity="0.85" />
  <rect x="245" y="460" width="95" height="8" rx="4" fill="#2F3642" />
  <circle cx="500" cy="453" r="8" fill="#FF003D" />

  <rect x="185" y="515" width="350" height="90" rx="22" fill="#171B22" stroke="#242934" stroke-width="1.2" />
  <rect x="210" y="540" width="180" height="12" rx="6" fill="#ECEFF5" opacity="0.85" />
  <rect x="210" y="562" width="240" height="10" rx="5" fill="#2F3642" />
  <rect x="210" y="582" width="120" height="10" rx="5" fill="#2F3642" />

  <rect x="185" y="640" width="350" height="56" rx="16" fill="#151922" stroke="#242934" stroke-width="1.2" />
  <rect x="210" y="661" width="180" height="10" rx="5" fill="#2F3642" />
  <rect x="430" y="655" width="80" height="22" rx="11" fill="#FF003D" />
</svg>
