<svg width="640" height="520" viewBox="0 0 640 520" fill="none" xmlns="http://www.w3.org/2000/svg">
  <defs>
    <radialGradient id="blob" cx="0" cy="0" r="1" gradientUnits="userSpaceOnUse" gradientTransform="translate(240 210) rotate(130) scale(210 210)">
      <stop offset="0%" stop-color="#FFD6E5" />
      <stop offset="55%" stop-color="#EAD9FF" />
      <stop offset="100%" stop-color="#D7F1FF" />
    </radialGradient>
  </defs>

  <circle cx="240" cy="210" r="170" fill="url(#blob)" />
  <circle cx="420" cy="120" r="26" fill="#FFE87A" />
  <rect x="408" y="145" width="24" height="10" rx="5" fill="#F2CF4A" />

  <rect x="90" y="290" width="170" height="110" rx="20" fill="#FFFFFF" stroke="#E7E3F3" stroke-width="2" />
  <rect x="110" y="315" width="110" height="10" rx="5" fill="#D9D3EA" />
  <rect x="110" y="336" width="120" height="10" rx="5" fill="#E6E1F1" />
  <rect x="110" y="357" width="70" height="10" rx="5" fill="#E6E1F1" />

  <rect x="70" y="225" width="86" height="58" rx="10" fill="#EAF1FB" stroke="#C9D5EA" stroke-width="2" />
  <rect x="60" y="283" width="106" height="10" rx="5" fill="#C9D5EA" />

  <circle cx="312" cy="238" r="26" fill="#FFD9C2" />
  <path d="M288 236 C292 214 332 214 336 236" fill="#2C2F3A" />
  <rect x="284" y="264" width="56" height="72" rx="22" fill="#5EC0B7" />
  <rect x="272" y="332" width="30" height="74" rx="14" fill="#2F3547" />
  <rect x="320" y="332" width="30" height="74" rx="14" fill="#2F3547" />

  <circle cx="430" cy="325" r="26" fill="#FFFFFF" stroke="#E7E3F3" stroke-width="2" />
  <circle cx="430" cy="325" r="16" fill="#F4F1FF" />
  <rect x="448" y="341" width="40" height="8" rx="4" transform="rotate(35 448 341)" fill="#C7C0DE" />

  <circle cx="140" cy="190" r="8" fill="#FF7A9B" />
  <circle cx="180" cy="150" r="6" fill="#66D1FF" />
  <circle cx="360" cy="145" r="5" fill="#FFA94D" />
</svg>
